# xmcd
#
# Track frame offsets:
# 150
# 15479
# 30068
# 47739
# 59671
# 75723
# 85141
# 104261
# 120558
# 138674
# 152320
# 170584
# 182600
# 196777
# 210972
# 225793
#
# Disc length: 3198 seconds
#
#
# Revision: 0
# Processed by: cddbd v1.5.2PL0 Copyright (c) Steve Scherf et al.
# Submitted via: FreeRIP 2.96 
#
DISCID=b50c7c10
DTITLE=Various Artist - Good Ole Line Dance Music
DYEAR=1900
DGENRE=Country
TTITLE0=El Paso Lady(Carmen)-Gene Watson
TTITLE1=I Fell In love Again Last Night-Forester Sisters
TTITLE2=Mocking Bird-Carly Simon
TTITLE3=Adios Amigo-Jim Reeves
TTITLE4=Honky Tonk Healin-David Ball
TTITLE5=Mockingbird Hill-Fools Gold
TTITLE6=Land of Empty Dreams-Fools Gold
TTITLE7=My New Found Friend-Dave Sheriff
TTITLE8=See Rock City-Lacy J Dalton
TTITLE9=Crazy Blue Eyes-Lacy J Dalton
TTITLE10=Baby Please Dont Go-Yoakam/Crow
TTITLE11=On The Wings Of A Nightingale-Everly Brothers
TTITLE12=Lost In The Feeling-Mark Chestnut
TTITLE13=Sweet Little Dangerous-Heather Myles
TTITLE14=Stranger-Johny Duncan
TTITLE15=I'd Love You All Over Again-Alan Jackson
EXTD=
EXTT0=
EXTT1=
EXTT2=
EXTT3=
EXTT4=
EXTT5=
EXTT6=
EXTT7=
EXTT8=
EXTT9=
EXTT10=
EXTT11=
EXTT12=
EXTT13=
EXTT14=
EXTT15=
PLAYORDER=
